<?xml version="1.0" encoding="UTF-8"?><svg id="a" xmlns="http://www.w3.org/2000/svg" viewBox="0 0 1080 1080"><defs><style>.b{fill:#8cceca;}</style></defs><path class="b" d="M33.11,730.65c78.12,208.17,280.24,347.97,502.99,347.97s425.29-139.63,503.33-347.45c19.78-51.28,31.24-104.63,34.12-158.65,.61-11.28,1.16-22.25,1.16-32.54,0-18.37-.78-35.02-2.32-49.5l-.02-.24c-4.08-47.87-15.1-95.27-32.74-140.89C961.48,141.18,759.14,1.37,536.1,1.37S111.31,140.97,33.34,348.74c-10.45,27.01-18.65,54.76-24.41,82.63-2.45,11.85,.25,23.82,7.61,33.7,7.49,10.05,18.92,16.42,31.37,17.5,21.74,1.8,41.2-12.27,45.41-32.87,1.59-7.74,4.01-15.19,6.35-22.39,1.19-3.66,2.38-7.32,3.45-11l2.44-8.44h154.9l-3.19,14.25c-9.73,43.48-14.47,82.14-14.47,118.16,0,38.94,4.39,78.52,13.05,117.65l3.15,14.22H104.28l-2.44-8.45c-4.79-16.61-8.34-31.76-10.85-46.34-3.57-20.75-21.49-35.75-42.18-35.75-.77,0-1.54,.02-2.31,.06-12.39,.66-23.96,6.64-31.74,16.38-7.7,9.65-10.92,22.1-8.84,34.15,5.77,33.47,14.92,66.59,27.21,98.44Zm506.99,183.31l-6.57,4.46-6.57-4.46c-43.29-29.41-80.71-65.52-111.22-107.33-4.95-6.76-9.04-13.8-13-20.61-1.88-3.24-3.77-6.49-5.74-9.68l-11.01-17.84h296.22l-10.94,17.82c-33.94,55.27-78.07,101.58-131.16,137.65Zm-190.62-241.81l-2.4-8.52c-11.89-42.19-17.92-83.69-17.92-123.36s5.92-82.76,17.58-123.91l2.41-8.5h369.09l2.42,8.49c11.67,40.98,17.59,82.67,17.59,123.93s-5.88,82.6-17.48,123.38l-2.42,8.5H349.48Zm571.09,104.17c-59.06,95.99-151.31,166.14-259.77,197.53l-3.29,.95-6.39-1.88c-3.96-1.16-7.91-2.32-11.81-3.62l-19.64-6.55,15.74-13.44c58.98-50.36,107.24-114,139.55-184.02l3.13-6.79h153.44l-10.97,17.82Zm49.57-360.03c8.95,30.88,14.13,57.03,16.3,82.3,1.32,12.49,1.93,25.64,1.93,41.38,0,8.67-.48,17.57-.94,26.18l-.09,1.7c-1.58,29.36-7.16,59.81-17.56,95.85l-2.44,8.45h-159.36l3.19-14.25c8.91-39.74,13.43-79.31,13.43-117.62s-4.55-78.26-13.51-118.16l-3.21-14.26h159.81l2.45,8.44ZM639.3,110.74c4.59-1.52,9.25-2.88,13.9-4.24l4.41-1.29,3.27,.95c108.33,31.4,200.53,101.55,259.62,197.54l10.98,17.82h-153.52l-3.13-6.79c-32.31-70.01-80.54-133.63-139.46-183.98l-15.78-13.49,19.71-6.51Zm-112.24,55.43l6.58-4.49,6.59,4.48c52.99,36.06,97.04,82.33,130.93,137.53l10.94,17.82H385.74l10.99-17.83c1.04-1.68,1.95-3.43,2.86-5.18,1.46-2.77,2.93-5.54,4.68-8.18,32.44-48.93,73.75-90.71,122.79-124.16ZM141.15,321.52l10.95-17.82c58.39-95.02,149.3-164.9,255.98-196.74l3.33-1,4.67,1.39c3.69,1.09,7.38,2.19,11.01,3.37l19.73,6.46-15.76,13.53c-37.86,32.49-71.08,70.13-98.76,111.87-14.59,21.96-28.04,46.22-40,72.13l-3.13,6.8H141.15Zm147.86,436.98l3.14,6.8c15.44,33.5,33.57,64.56,53.88,92.32,23.89,32.72,52.65,63.49,85.48,91.49l15.83,13.5-19.76,6.51c-4,1.32-8.06,2.52-12.12,3.72l-3.33,.98-4.02-.78c-106.55-31.82-197.43-101.68-255.89-196.71l-10.96-17.82h147.76Z"/></svg>