<?xml version="1.0" encoding="UTF-8"?><svg id="a" xmlns="http://www.w3.org/2000/svg" viewBox="0 0 1080 1080"><defs><style>.b{fill:#8cceca;}</style></defs><path class="b" d="M575.7,1061.29l496.58-717.44c9.69-14,10.29-32.49,1.53-47.1L908.11,21.05c-7.8-12.99-22.06-21.05-37.23-21.05H208.77c-15.16,0-29.42,8.09-37.22,21.09L6.18,296.81c-8.76,14.59-8.16,33.04,1.52,47.01l112.05,161.93c13.61,19.65,40.7,24.58,60.41,10.99,9.52-6.6,15.93-16.52,18-27.92,2.08-11.4-.41-22.93-7.01-32.46l-64.89-93.78h157.07l129.9,414.6-114.96-166.09c-8.42-12.16-21.99-18.69-35.76-18.69-8.53,0-17.13,2.5-24.65,7.71-19.68,13.64-24.61,40.74-10.98,60.42l277.42,400.79c8.12,11.71,21.47,18.7,35.7,18.7s27.58-6.99,35.71-18.71Zm91.03-284.08l129.89-414.64h157.1l-287,414.64ZM846.34,86.83l113.52,188.91h-166.42l-80.25-188.91h133.15Zm-385.52,0h158.07l80.23,188.91H380.76l80.06-188.91Zm-174.36,188.91H120.06L233.36,86.83h133.14l-80.05,188.91Zm87.85,86.83h331.32l-165.64,528.82L374.3,362.57Z"/></svg>