<?xml version="1.0" encoding="UTF-8"?><svg id="a" xmlns="http://www.w3.org/2000/svg" viewBox="0 0 1080 967.7"><defs><style>.b{fill:#8cceca;}</style></defs><path class="b" d="M724.58,965.14l330.43-126.63c14.94-5.73,24.98-20.33,24.98-36.33V38.96c0-12.57-6.12-24.43-16.38-31.7h-.02c-10.32-7.36-23.48-9.25-35.24-5.07l-321.3,111.83L378.42,2.11c-3.57-1.21-7.49-1.84-11.99-1.9l-1.74-.09c-4.16,.12-8.13,.84-11.85,2.16L25.89,118.5C10.4,124.01,0,138.75,0,155.17v130.61c0,21.46,17.46,38.92,38.92,38.92s38.92-17.46,38.92-38.92v-103.11l249.25-88.63V775.45l-249.25,96.55V453.95c0-21.46-17.46-38.92-38.92-38.92S0,432.49,0,453.95v474.86c0,12.85,6.33,24.85,16.93,32.11,10.46,7.16,24.01,8.81,36.1,4.17l313.2-121.32,331,121.56c3.34,1.23,7.2,1.87,12.14,2.05,.93,.03,1.74,.16,2.37,.31,4.53-.14,8.8-1,12.85-2.55ZM1002.16,93.71V775.42l-252.82,96.9-3.14-689.5,255.96-89.1ZM404.94,775.07V93.38l263.41,89.7,3.15,689.89-266.56-97.91Z"/></svg>