<svg id="ae15a427-c202-45a0-bc0b-8978ce436fa2" data-name="Livello 1" xmlns="http://www.w3.org/2000/svg" viewBox="0 0 120.78 117.79"><defs><style>.a94a86c3-c35e-4236-9046-34a250f1d7a8,.f4b84d05-a4cb-4046-a0cb-c2c7d07e0b09{fill:#fff;}.f4b84d05-a4cb-4046-a0cb-c2c7d07e0b09{fill-rule:evenodd;}</style></defs><title>github</title><path class="f4b84d05-a4cb-4046-a0cb-c2c7d07e0b09" d="M60.06.39A60.39,60.39,0,0,0,41,118.08c3,.56,4.12-1.31,4.12-2.91,0-1.44-.05-6.19-.08-11.24-16.8,3.65-20.34-7.12-20.34-7.12C21.92,89.83,18,88,18,88c-5.48-3.75.42-3.67.42-3.67,6.06.42,9.25,6.22,9.25,6.22,5.39,9.23,14.13,6.56,17.58,5,.54-3.9,2.1-6.57,3.83-8.07-13.41-1.53-27.51-6.71-27.51-29.85a23.39,23.39,0,0,1,6.22-16.21c-.63-1.52-2.7-7.66.58-16,0,0,5.07-1.62,16.61,6.19a57.36,57.36,0,0,1,30.25,0c11.52-7.81,16.59-6.19,16.59-6.19,3.28,8.32,1.22,14.46.59,16a23.34,23.34,0,0,1,6.21,16.21c0,23.2-14.12,28.3-27.57,29.8,2.17,1.87,4.1,5.55,4.1,11.18,0,8.08-.07,14.58-.07,16.57,0,1.61,1.08,3.49,4.14,2.9A60.39,60.39,0,0,0,60.06.39Z" transform="translate(0.33 -0.39)"/><path class="a94a86c3-c35e-4236-9046-34a250f1d7a8" d="M22.54,87.09c-.13.3-.6.39-1,.19s-.69-.61-.54-.91.6-.4,1-.19.69.61.53.91Zm-.74-.55" transform="translate(0.33 -0.39)"/><path class="a94a86c3-c35e-4236-9046-34a250f1d7a8" d="M25,89.82c-.29.27-.85.14-1.23-.28a.92.92,0,0,1-.18-1.25c.3-.27.84-.15,1.24.28s.47,1,.17,1.25Zm-.58-.62" transform="translate(0.33 -0.39)"/><path class="a94a86c3-c35e-4236-9046-34a250f1d7a8" d="M27.37,93.3c-.37.26-1,0-1.35-.52s-.37-1.18,0-1.44,1,0,1.35.51.37,1.19,0,1.45Zm0,0" transform="translate(0.33 -0.39)"/><path class="a94a86c3-c35e-4236-9046-34a250f1d7a8" d="M30.63,96.66c-.33.36-1,.27-1.55-.23a1.17,1.17,0,0,1-.34-1.55c.33-.36,1-.26,1.56.24s.69,1.18.33,1.54Zm0,0" transform="translate(0.33 -0.39)"/><path class="a94a86c3-c35e-4236-9046-34a250f1d7a8" d="M35.13,98.61c-.14.47-.82.69-1.51.49s-1.13-.76-1-1.24.83-.7,1.51-.49,1.13.76,1,1.24Zm0,0" transform="translate(0.33 -0.39)"/><path class="a94a86c3-c35e-4236-9046-34a250f1d7a8" d="M40.07,99c0,.5-.56.91-1.28.92s-1.3-.39-1.31-.88.57-.91,1.29-.92,1.3.39,1.3.88Zm0,0" transform="translate(0.33 -0.39)"/><path class="a94a86c3-c35e-4236-9046-34a250f1d7a8" d="M44.67,98.19c.09.48-.41,1-1.12,1.12s-1.35-.18-1.44-.66.42-1,1.12-1.12,1.35.16,1.44.66Zm0,0" transform="translate(0.33 -0.39)"/></svg>