<?xml version="1.0" encoding="UTF-8" standalone="no"?><!DOCTYPE svg PUBLIC "-//W3C//DTD SVG 1.1//EN" "http://www.w3.org/Graphics/SVG/1.1/DTD/svg11.dtd"><svg width="100%" height="100%" viewBox="0 0 42 38" version="1.1" xmlns="http://www.w3.org/2000/svg" xmlns:xlink="http://www.w3.org/1999/xlink" xml:space="preserve" xmlns:serif="http://www.serif.com/" style="fill-rule:evenodd;clip-rule:evenodd;stroke-linejoin:round;stroke-miterlimit:2;"><path d="M2.476,21.384l0.145,-0.229l8.78,-13.735c0.128,-0.201 0.43,-0.18 0.527,0.039c1.467,3.287 2.733,7.375 2.14,9.92c-0.253,1.047 -0.947,2.465 -1.727,3.776c-0.101,0.191 -0.212,0.378 -0.33,0.558c-0.055,0.084 -0.149,0.132 -0.249,0.132l-9.03,0c-0.242,0 -0.384,-0.263 -0.256,-0.461Z" style="fill:#2081e2;fill-rule:nonzero;"/><path d="M41.61,23.936l0,2.174c0,0.125 -0.076,0.236 -0.187,0.285c-0.68,0.291 -3.007,1.359 -3.974,2.704c-2.469,3.437 -4.355,8.35 -8.572,8.35l-17.59,-0c-6.235,-0 -11.287,-5.069 -11.287,-11.325l0,-0.201c0,-0.166 0.135,-0.302 0.302,-0.302l9.806,0c0.194,0 0.336,0.181 0.319,0.371c-0.07,0.638 0.048,1.29 0.35,1.883c0.583,1.183 1.789,1.921 3.093,1.921l4.855,0l-0,-3.79l-4.8,0c-0.246,0 -0.391,-0.284 -0.249,-0.485c0.052,-0.08 0.111,-0.163 0.173,-0.257c0.454,-0.645 1.103,-1.647 1.748,-2.788c0.44,-0.769 0.867,-1.591 1.21,-2.416c0.069,-0.15 0.125,-0.302 0.18,-0.451c0.094,-0.264 0.191,-0.51 0.26,-0.756c0.07,-0.208 0.125,-0.427 0.181,-0.631c0.163,-0.701 0.232,-1.443 0.232,-2.213c0,-0.301 -0.014,-0.617 -0.042,-0.918c-0.013,-0.33 -0.055,-0.659 -0.097,-0.989c-0.027,-0.291 -0.079,-0.579 -0.135,-0.88c-0.069,-0.441 -0.166,-0.878 -0.277,-1.318l-0.038,-0.166c-0.084,-0.302 -0.153,-0.59 -0.25,-0.892c-0.274,-0.946 -0.59,-1.869 -0.922,-2.732c-0.122,-0.343 -0.261,-0.673 -0.399,-1.002c-0.205,-0.496 -0.413,-0.947 -0.604,-1.373c-0.097,-0.194 -0.18,-0.371 -0.263,-0.552c-0.094,-0.204 -0.191,-0.409 -0.288,-0.603c-0.069,-0.149 -0.149,-0.288 -0.204,-0.426l-0.593,-1.096c-0.084,-0.149 0.055,-0.326 0.218,-0.281l3.71,1.006l0.011,-0c0.007,-0 0.01,0.003 0.014,0.003l0.488,0.135l0.538,0.153l0.198,0.055l-0,-2.205c-0,-1.065 0.853,-1.928 1.907,-1.928c0.527,0 1.005,0.215 1.348,0.565c0.344,0.35 0.559,0.829 0.559,1.363l-0,3.273l0.395,0.111c0.031,0.011 0.063,0.024 0.09,0.045c0.097,0.073 0.236,0.181 0.413,0.312c0.139,0.111 0.288,0.247 0.468,0.385c0.357,0.288 0.784,0.659 1.252,1.086c0.125,0.107 0.246,0.218 0.357,0.329c0.603,0.562 1.279,1.221 1.924,1.949c0.181,0.204 0.358,0.412 0.538,0.631c0.18,0.222 0.371,0.44 0.537,0.659c0.219,0.291 0.454,0.593 0.659,0.908c0.097,0.149 0.208,0.302 0.302,0.451c0.263,0.399 0.496,0.811 0.718,1.224c0.093,0.191 0.19,0.399 0.273,0.603c0.247,0.552 0.441,1.113 0.566,1.675c0.038,0.121 0.066,0.253 0.079,0.371l0,0.028c0.042,0.166 0.056,0.343 0.07,0.523c0.055,0.576 0.028,1.152 -0.097,1.731c-0.052,0.246 -0.122,0.478 -0.205,0.724c-0.083,0.236 -0.166,0.482 -0.274,0.715c-0.208,0.482 -0.454,0.964 -0.745,1.414c-0.094,0.167 -0.205,0.344 -0.316,0.51c-0.121,0.177 -0.246,0.343 -0.357,0.506c-0.153,0.209 -0.316,0.427 -0.482,0.621c-0.149,0.205 -0.302,0.409 -0.468,0.59c-0.232,0.273 -0.454,0.534 -0.687,0.783c-0.138,0.163 -0.287,0.33 -0.44,0.479c-0.149,0.166 -0.302,0.315 -0.44,0.454c-0.233,0.232 -0.427,0.413 -0.59,0.562l-0.381,0.35c-0.056,0.048 -0.129,0.076 -0.205,0.076l-2.954,0l-0,3.79l3.717,0c0.832,0 1.623,-0.295 2.261,-0.835c0.218,-0.191 1.172,-1.016 2.299,-2.261c0.038,-0.042 0.086,-0.073 0.142,-0.087l10.267,-2.968c0.191,-0.056 0.385,0.09 0.385,0.291Z" style="fill:#2081e2;fill-rule:nonzero;"/></svg>