<?xml version="1.0" encoding="UTF-8"?><svg id="a" xmlns="http://www.w3.org/2000/svg" viewBox="0 0 1080 1080"><defs><style>.b{fill:#8cceca;}</style></defs><path class="b" d="M1069.78,1055.25c10.22-12.61,12.33-30.26,5.36-44.94h0l-238.52-503.02,2.71-5.1c26.26-49.46,40.14-105.42,40.14-161.82,0-30.33-4.23-60.03-12.58-88.29C825.96,105.36,691.3,3,539.35,3c-130.06,0-250.38,75.67-306.52,192.79-5.12,10.67-5.14,22.68-.06,33.82,5.4,11.83,15.65,20.58,28.14,24.01,19.81,5.4,40.25-4.23,49.73-23.49,42.47-86.33,132.25-142.12,228.71-142.12,113.93,0,215.02,77.11,245.82,187.53,6.23,21.14,9.29,43.3,9.29,67.61,0,81.87-39.85,159.38-106.59,207.33-67.81,48.71-153.74,60.81-235.78,33.19-84.42-28.43-147.14-102.82-163.68-194.14-3.68-20.34-21.15-35.07-41.56-35.07h-.14c-12.93,.04-25.11,5.78-33.43,15.73-7.77,9.3-10.93,20.77-8.89,32.3,5.94,33.61,17.98,67.47,35.79,100.62l2.75,5.13L4.86,1010.3c-6.97,14.69-4.86,32.33,5.37,44.97,10.28,12.67,27.11,18.38,42.88,14.57l199.12-47.69,106.85,50.75c10.46,4.95,22.65,5.44,33.57,1.24,10.82-4.17,19.56-12.73,23.98-23.47l123.36-299.9,123.36,299.9c4.42,10.74,13.16,19.29,23.99,23.47,10.92,4.2,23.1,3.73,33.57-1.24l106.84-50.74,199.09,47.68c15.77,3.85,32.6-1.9,42.94-14.59Zm-714.69-78.38l-79.91-37.93c-8.75-4.13-18.76-5.17-28.16-2.95l-127.33,30.49,181.03-381.8,11.49,10.37c43.14,38.94,96,66.27,152.88,79.05l13.31,3-123.3,299.76Zm477.89-40.88c-9.5-2.23-19.5-1.18-28.16,2.94l-79.91,37.94-123.14-299.37,13.25-3.03c56.44-12.91,109.14-40.59,152.41-80.06l11.49-10.49,181.4,382.55-127.33-30.49Z"/></svg>