<?xml version="1.0" encoding="UTF-8"?><svg id="a" xmlns="http://www.w3.org/2000/svg" viewBox="0 0 1080 896.08"><defs><style>.b{fill:#8cceca;}</style></defs><path class="b" d="M1070.66,828.76c12.81-30.42,11.44-64.58-3.62-93.81-15.77-30.48-50.34-50.7-90.25-52.83-44.89-2.67-55.92,4.62-67.6,12.45l-5.04,3.32-5.46-3.14-81.18-56.87,3.14-6.76c8.18-17.73,14.41-37.24,18.5-58.11,10.44-55.92,2.79-112.61-22.24-163.78l-3.08-6.4,86.69-70.09,5.34,3.2c31.55,18.86,70.03,20.58,103,4.63,38.37-18.21,63.33-58.82,62.14-101.1-.89-33.44-16.19-64.22-41.92-84.44-25.85-20.28-59.12-27.93-91.26-20.99-33.86,7.12-62.68,35.22-75.25,73.35-14.23,43.23-9.96,55.33-5.52,68.13l2.08,5.93-82.54,67.54-5.69-5.99c-37.77-39.85-87.23-66.65-142.97-77.5-23.36-4.15-46.61-5.22-68.84-3.2-18.8,1.9-37.65,5.99-57.7,12.57l-7.47,2.43-41.51-86.99,4.39-4.45c29.29-29.83,38.66-71.99,25.02-112.79-11.21-33.27-39.26-59.71-73.23-68.96-33.62-9.19-68.61-2.79-96,17.49-27.4,20.34-43.7,51.35-44.65,85.15-1.07,34.45,19.27,69.02,53.07,90.31,38.25,24.31,51.35,23.24,65.23,22.06l6.7-.54,42.64,87.82-6.11,4.33c-56.1,39.79-93.93,98.14-106.62,164.26-1.01,4.68-1.36,9.13-1.72,13.82-.18,2.49-.36,5.04-.65,7.65l-.83,7.35-107.74,7.65-2.96-6.34c-5.57-11.86-11.39-24.14-50.05-44.83-35.52-18.74-75.78-19.33-105.08-1.48-29.35,17.85-48.45,47.61-52.48,81.83-3.91,33.86,8.01,67.25,32.79,91.62,25.14,24.79,62.2,35.87,96.71,28.94,41.51-8.18,74.06-38.01,84.97-77.98l1.66-5.99,105.49-8.19,1.6,7.71c13.16,64.16,48.8,120.49,100.45,158.62,7.35,5.51,16.37,7.35,25.56,5.1,9.61-2.31,17.85-8.96,22.06-17.67,2.25-4.39,3.32-9.25,3.32-14.53,0-10.14-5.1-20.16-13.7-26.74-59.3-44.77-88.77-120.91-75.01-193.96,16.54-86.52,89.66-152.1,177.78-159.57,13.16-1.3,26.51-1.19,39.43,.47,44.83,5.4,86.4,25.73,117.11,57.28,45.96,47.32,65.23,111.18,52.83,175.22-9.55,51.71-38.9,96.6-82.6,126.3-31.49,21.47-67.78,33.27-104.96,34.1h-6.11c-16.78,1.48-29.41,15.54-29.41,32.85s14.41,32.5,32.2,32.79h2.31c50.88-.77,100.39-16.54,143.15-45.6,17.02-11.63,33.21-25.86,48.03-42.4l5.34-5.93,82.84,59.18-1.6,5.93c-9.72,36-1.3,72.7,23.13,100.75,28.4,31.9,74.3,44.95,114.15,32.43,32.2-9.9,56.99-32.08,69.79-62.62ZM924.02,217.52c6.35-10.02,16.13-16.96,27.52-19.51l.06-.06c23.9-5.1,47.5,10.08,52.78,33.98,5.16,23.78-9.9,47.44-33.5,52.72-3.14,.71-6.34,1.07-9.49,1.07-8.36,0-16.54-2.43-23.78-7.06-10.08-6.47-16.96-16.37-19.51-27.93-2.49-11.39-.41-23.19,5.93-33.21Zm-546.07-63.69h-.89c-11.68,0-22.71-4.68-30.89-13.04-8.36-8.48-12.75-19.69-12.51-31.49,.53-24.19,20.75-43.82,45.18-43.82,24.61,.53,44.06,20.93,43.52,45.42-.53,23.9-20.34,42.93-44.41,42.93Zm-224.38,409.87c-2.73,11.56-9.9,21.29-20.1,27.4v.06c-6.94,4.15-14.77,6.29-22.65,6.29-3.62,0-7.23-.41-10.79-1.3-11.5-2.91-21.11-10.02-27.22-20.16-6.23-9.96-8.12-21.88-5.28-33.5,2.85-11.68,10.14-21.47,20.52-27.51,9.72-5.99,21.47-7.83,32.85-4.98,11.56,2.91,21.29,10.26,27.34,20.64,6.17,9.78,8.12,21.64,5.34,33.09Zm836.63,261.39c-6.52,3.5-13.7,5.28-20.87,5.28-4.45,0-8.84-.65-13.16-2.02-11.33-3.5-20.52-11.15-26.03-21.58-11.03-21.76-2.61-48.45,18.86-59.6,10.32-5.57,22.83-6.76,34.15-3.2,11.15,3.44,20.16,10.97,25.38,21.23,11.56,22.06,3.56,48.39-18.32,59.89Z"/></svg>