<?xml version="1.0" encoding="UTF-8"?><svg id="a" xmlns="http://www.w3.org/2000/svg" viewBox="0 0 1080 1040.23"><defs><style>.c{fill:#8cceca;}</style></defs><g id="b"><path class="c" d="M966.74,176.91C966.17,77.54,897.97,0,811.46,0c-31.95,.31-63.22,9.47-90.33,26.51l-5.67,3.57-5.68-3.57C682.6,9.47,651.14,.31,618.79,0c-41.56,0-80.46,17.99-109.43,50.66-29.17,32.9-45.23,77.08-45.2,124.39-.38,7.72-6.11,177.8,231.62,295.27,12.37,6.1,27.31,6.07,39.76-.2,226.6-114.74,232.35-264.38,231.21-293.21Zm-246.25,200.66l-5.23,2.95-5.24-2.93c-153.71-85.92-157.27-188.52-157.18-199.93,0-48.99,29.39-88.92,65.51-88.92h.09c24.36,.22,47.44,10.95,63.33,29.45,7.95,9.24,20.23,14.55,33.67,14.55s25.71-5.3,33.68-14.55c15.87-18.49,38.76-29.22,62.78-29.44,37.63,0,66.07,40.06,66.25,93.17,.21,3.73,3.51,104.55-157.67,195.66Z"/><path class="c" d="M902.39,882.33c6.13,0,12.13-1.27,17.82-3.78l76.39-33.62c33.04-13.31,58.7-38.55,72.56-71.19,13.88-32.62,14.25-68.61,1.03-101.34-27.34-67.74-104.68-100.63-172.41-73.3l-237.99,96.05,2.62-18.35c4.09-28.72-.9-57.03-14.45-81.88-16.99-31.13-44.98-53.75-78.82-63.69l-168.99-49.48c-60.02-24.11-197.08-38.29-286.24,80.62l-.48,.6c-.88,1.02-3.71,3.69-6.93,6.43l-17.59,14.94v-38.56c0-24.47-19.9-44.37-44.37-44.37S.16,521.31,.16,545.78v448.7c0,24.47,19.9,44.37,44.37,44.37s44.37-19.91,44.37-44.37v-28.37l169.44-50.06c3.15-1.06,34.55-11.01,64.09,1.39l166.34,54.85c13.34,5.97,61.17,25.46,116.67,25.46,30.72,0,58.97-5.98,83.96-17.76l58.94-25.89c22.39-9.85,32.61-36.08,22.77-58.48-4.75-10.85-13.44-19.19-24.47-23.49-11.04-4.3-23.13-4.05-34.01,.72l-60.01,26.39c-53.43,23.5-120.88-4.99-128.21-8.23l-170.73-56.5c-60.81-26.7-123.13-2.78-123.72-2.52l-1.55,.6-139.52,41.03v-195.31l6.9-2.61c60.21-22.77,86.77-57.08,87.88-58.53,67.65-90.15,167.39-59.16,187.76-51.58l172.68,50.77c11.05,3.24,20.26,10.71,25.92,21.03,5.66,10.35,6.96,22.17,3.67,33.27-3.39,12.91-18.39,36.44-50.18,30.85l-1.81-.49-133.4-48.65c-11.14-4.07-23.18-3.57-33.93,1.43-10.75,5-18.91,13.89-22.97,25.04-4.06,11.14-3.55,23.19,1.46,33.94,5.01,10.74,13.89,18.9,25.02,22.95l133.94,48.73c.94,.33,97.93,34.56,159.94,9.57l279.2-112.65c22.05-8.83,48.12,2.29,56.94,24.25,4.34,10.69,4.2,22.56-.4,33.39-4.73,11.11-13.25,19.22-25.32,24.14l-77.68,34.15c-10.85,4.77-19.2,13.47-23.5,24.52-4.3,11.05-4.04,23.1,.73,33.95,7.1,16.12,23.05,26.55,40.65,26.55Z"/></g></svg>